<svg width="46" height="46" viewBox="0 0 46 46" fill="none" xmlns="http://www.w3.org/2000/svg">
<path d="M38.4292 21.0833H7.57083C6.56521 21.0833 5.75 21.8985 5.75 22.9041V23.0958C5.75 24.1014 6.56521 24.9166 7.57083 24.9166H38.4292C39.4348 24.9166 40.25 24.1014 40.25 23.0958V22.9041C40.25 21.8985 39.4348 21.0833 38.4292 21.0833Z" fill="#61DAFB"/>
<path d="M38.4292 30.6667H7.57083C6.56521 30.6667 5.75 31.4819 5.75 32.4875V32.6792C5.75 33.6848 6.56521 34.5 7.57083 34.5H38.4292C39.4348 34.5 40.25 33.6848 40.25 32.6792V32.4875C40.25 31.4819 39.4348 30.6667 38.4292 30.6667Z" fill="#61DAFB"/>
<path d="M38.4292 11.5H7.57083C6.56521 11.5 5.75 12.3152 5.75 13.3208V13.5125C5.75 14.5181 6.56521 15.3333 7.57083 15.3333H38.4292C39.4348 15.3333 40.25 14.5181 40.25 13.5125V13.3208C40.25 12.3152 39.4348 11.5 38.4292 11.5Z" fill="#61DAFB"/>
</svg>
