<svg width="51" height="51" viewBox="0 0 51 51" fill="none" xmlns="http://www.w3.org/2000/svg">
<path d="M28.4962 25.5L37.6337 16.3838C38.0339 15.9836 38.2587 15.4409 38.2587 14.875C38.2587 14.3091 38.0339 13.7664 37.6337 13.3663C37.2336 12.9661 36.6909 12.7413 36.125 12.7413C35.5591 12.7413 35.0164 12.9661 34.6162 13.3663L25.5 22.5038L16.3837 13.3663C15.9836 12.9661 15.4409 12.7413 14.875 12.7413C14.3091 12.7413 13.7664 12.9661 13.3662 13.3663C12.9661 13.7664 12.7413 14.3091 12.7413 14.875C12.7413 15.4409 12.9661 15.9836 13.3662 16.3838L22.5037 25.5L13.3662 34.6163C13.1671 34.8138 13.009 35.0488 12.9011 35.3078C12.7932 35.5667 12.7377 35.8445 12.7377 36.125C12.7377 36.4055 12.7932 36.6833 12.9011 36.9422C13.009 37.2012 13.1671 37.4362 13.3662 37.6338C13.5638 37.8329 13.7988 37.991 14.0578 38.0989C14.3167 38.2068 14.5945 38.2623 14.875 38.2623C15.1555 38.2623 15.4333 38.2068 15.6922 38.0989C15.9512 37.991 16.1862 37.8329 16.3837 37.6338L25.5 28.4963L34.6162 37.6338C34.8138 37.8329 35.0488 37.991 35.3078 38.0989C35.5667 38.2068 35.8445 38.2623 36.125 38.2623C36.4055 38.2623 36.6833 38.2068 36.9422 38.0989C37.2012 37.991 37.4362 37.8329 37.6337 37.6338C37.8329 37.4362 37.991 37.2012 38.0989 36.9422C38.2068 36.6833 38.2623 36.4055 38.2623 36.125C38.2623 35.8445 38.2068 35.5667 38.0989 35.3078C37.991 35.0488 37.8329 34.8138 37.6337 34.6163L28.4962 25.5Z" fill="#4FC08D"/>
</svg>
