<svg width="49" height="49" viewBox="0 0 49 49" fill="none" xmlns="http://www.w3.org/2000/svg">
<path d="M44.3921 25.1758L26.0171 4.7591C25.2433 3.89752 23.757 3.89752 22.9832 4.7591L4.60817 25.1758C4.34369 25.4689 4.17008 25.8326 4.10846 26.2227C4.04684 26.6127 4.09987 27.0122 4.26109 27.3726C4.58775 28.1096 5.31867 28.5833 6.12513 28.5833H10.2085V42.875C10.2085 43.4165 10.4236 43.9358 10.8065 44.3187C11.1893 44.7015 11.7086 44.9166 12.2501 44.9166H18.3751C18.9166 44.9166 19.4359 44.7015 19.8188 44.3187C20.2017 43.9358 20.4168 43.4165 20.4168 42.875V34.7083H28.5835V42.875C28.5835 43.4165 28.7986 43.9358 29.1815 44.3187C29.5643 44.7015 30.0836 44.9166 30.6251 44.9166H36.7501C37.2916 44.9166 37.8109 44.7015 38.1938 44.3187C38.5767 43.9358 38.7918 43.4165 38.7918 42.875V28.5833H42.8751C43.2705 28.585 43.6579 28.4716 43.9899 28.2569C44.322 28.0423 44.5845 27.7357 44.7453 27.3744C44.9061 27.0132 44.9583 26.613 44.8956 26.2226C44.8329 25.8322 44.6579 25.4685 44.3921 25.1758Z" fill="#4FC08D"/>
</svg>
