<svg width="49" height="49" viewBox="0 0 49 49" fill="none" xmlns="http://www.w3.org/2000/svg">
<path d="M44.392 25.1758L26.017 4.7591C25.2432 3.89752 23.7568 3.89752 22.983 4.7591L4.60805 25.1758C4.34356 25.4689 4.16996 25.8326 4.10834 26.2227C4.04672 26.6127 4.09975 27.0122 4.26097 27.3726C4.58763 28.1096 5.31855 28.5833 6.12501 28.5833H10.2083V42.875C10.2083 43.4165 10.4234 43.9358 10.8063 44.3187C11.1892 44.7015 11.7085 44.9166 12.25 44.9166H18.375C18.9165 44.9166 19.4358 44.7015 19.8187 44.3187C20.2016 43.9358 20.4167 43.4165 20.4167 42.875V34.7083H28.5833V42.875C28.5833 43.4165 28.7984 43.9358 29.1813 44.3187C29.5642 44.7015 30.0835 44.9166 30.625 44.9166H36.75C37.2915 44.9166 37.8108 44.7015 38.1937 44.3187C38.5766 43.9358 38.7917 43.4165 38.7917 42.875V28.5833H42.875C43.2704 28.585 43.6578 28.4716 43.9898 28.2569C44.3219 28.0423 44.5843 27.7357 44.7451 27.3744C44.906 27.0132 44.9582 26.613 44.8955 26.2226C44.8328 25.8322 44.6578 25.4685 44.392 25.1758Z" fill="#DD0031"/>
</svg>
